/vscmnt/brussel_pixiu_data/_data_brussel/112/vsc11236/PredSimResults/SUBJ09opt3D/trackIG/worker_08.mot
version=1
nRows=11
nColumns=50
inDegrees=yes
endheader
                time	         pelvis_tilt	         pelvis_list	     pelvis_rotation	           pelvis_tx	           pelvis_ty	           pelvis_tz	       hip_flexion_r	     hip_adduction_r	      hip_rotation_r	        knee_angle_r	       ankle_angle_r	         mtp_angle_r	       hip_flexion_l	     hip_adduction_l	      hip_rotation_l	        knee_angle_l	       ankle_angle_l	         mtp_angle_l	    lumbar_extension	      lumbar_bending	     lumbar_rotation	 ercspn_r/activation	 intobl_r/activation	 extobl_r/activation	    abd_r/activation	    add_r/activation	hamstrings_r/activation	bifemsh_r/activation	glut_max_r/activation	iliopsoas_r/activation	rect_fem_r/activation	  vasti_r/activation	gastroc_r/activation	 soleus_r/activation	tib_ant_r/activation	 ercspn_l/activation	 intobl_l/activation	 extobl_l/activation	    abd_l/activation	    add_l/activation	hamstrings_l/activation	bifemsh_l/activation	glut_max_l/activation	iliopsoas_l/activation	rect_fem_l/activation	  vasti_l/activation	gastroc_l/activation	 soleus_l/activation	tib_ant_l/activation	
          1.22793362	         -4.57851092	         -1.16519103	          8.73930028	          1.59631370	          0.98616020	         -0.00330456	         29.81503607	         -1.63599039	         -8.95837627	         -6.67873150	          4.53692542	          0.24919979	        -14.82860040	         -2.71628036	         -3.87074583	         -9.61730398	          2.76612002	         38.21003521	        -13.30887927	         -0.69001823	         -6.70606609	          0.03443013	          0.14787373	          0.02550681	          0.01091034	          0.22562013	          0.06996930	          0.14345838	          0.10464977	          0.13343647	          0.00999999	          0.00999999	          0.01451195	          0.00999999	          0.33571487	          0.04588714	          0.00999999	          0.00999999	          0.02536963	          0.01204658	          0.02058761	          0.18798522	          0.01019842	          0.01000005	          0.00999999	          0.00999999	          0.31421082	          0.20593477	          0.01214990	
          1.24021295	         -4.59026362	         -1.30563046	          8.74300716	          1.61701120	          0.98386590	         -0.00266670	         29.74877428	         -1.45340692	         -9.10630301	         -8.61540450	          4.12043253	          0.20956656	        -15.45939342	         -3.09161870	         -4.31194240	        -10.46388842	          1.51093216	         39.82947357	        -12.78283752	         -0.24136022	         -6.91733339	          0.02858089	          0.12275187	          0.02117352	          0.08460528	          0.18729017	          0.06915886	          0.11908663	          0.14723712	          0.11076732	          0.00999999	          0.00999999	          0.01204656	          0.01204654	          0.37819014	          0.03809151	          0.00999999	          0.00999999	          0.02105965	          0.01000002	          0.01785124	          0.15604894	          0.00999999	          0.01482970	          0.00999999	          0.00999999	          0.27744854	          0.17886763	          0.01008578	
          1.25249229	         -4.58442534	         -1.45037500	          8.71172094	          1.63787874	          0.98190245	         -0.00194007	         29.61244740	         -1.25677255	         -9.22524527	        -10.46256583	          3.56188082	          0.20135871	        -15.85807011	         -3.49060724	         -4.77397701	        -11.75734581	          0.16769383	         41.31044225	        -12.25458986	          0.21077542	         -7.09760737	          0.02410607	          0.10189790	          0.01757641	          0.14342625	          0.21982837	          0.05740965	          0.09885534	          0.18766838	          0.09194937	          0.00999999	          0.00999999	          0.01000000	          0.00999999	          0.42485248	          0.05307658	          0.00999999	          0.00999999	          0.01748189	          0.00999999	          0.01481855	          0.12953822	          0.00999999	          0.05398766	          0.00999999	          0.00999999	          0.23031358	          0.14848030	          0.00999999	
          1.26477162	         -4.56255037	         -1.59285618	          8.64794306	          1.65856069	          0.98047187	         -0.00111083	         29.55546417	         -1.05814586	         -9.31843704	        -12.45495937	          3.02624908	          0.16419909	        -15.90434979	         -3.91600040	         -5.24453482	        -13.67466083	         -1.21158065	         42.47195879	        -11.76625880	          0.65980195	         -7.24576203	          0.04140030	          0.08458675	          0.01459041	          0.19257999	          0.28573644	          0.05314692	          0.08206108	          0.20714713	          0.07632834	          0.00999999	          0.08721743	          0.00999999	          0.00999999	          0.44545237	          0.09417457	          0.00999999	          0.00999999	          0.01451194	          0.07792043	          0.01861449	          0.10753133	          0.00999999	          0.09398200	          0.00999999	          0.00999999	          0.19118624	          0.12325540	          0.00999999	
          1.27705096	         -4.52737559	         -1.72629374	          8.55606817	          1.67886282	          0.97972562	         -0.00020203	         29.54752085	         -0.86039636	         -9.37576928	        -14.57766663	          2.83714745	          0.12052198	        -15.51215426	         -4.36858767	         -5.74964178	        -16.33799175	         -2.57822336	         43.04243760	        -11.33588427	          1.09967302	         -7.36199323	          0.03436693	          0.07021654	          0.01211168	          0.21577070	          0.29593542	          0.04861815	          0.06811995	          0.21843861	          0.06336113	          0.00999999	          0.19312107	          0.00999999	          0.00999999	          0.44545745	          0.10979249	          0.00999999	          0.00999999	          0.01204654	          0.15045683	          0.01545219	          0.08926313	          0.00999999	          0.08014237	          0.00999999	          0.00999999	          0.15870614	          0.10231588	          0.00999999	
          1.28933030	         -4.48294482	         -1.83882872	          8.43292318	          1.69865793	          0.97980874	          0.00075580	         29.47088122	         -0.65854454	         -9.40302348	        -16.60537859	          3.01136737	          0.08463488	        -14.63378773	         -4.84888820	         -6.32077702	        -19.80787206	         -3.90165479	         42.68385060	        -10.97499445	          1.51882277	         -7.44045567	          0.02852843	          0.05828764	          0.01005406	          0.22110305	          0.31508585	          0.04976228	          0.05654724	          0.21631257	          0.05259689	          0.00999999	          0.22853095	          0.00999999	          0.00999999	          0.41420949	          0.10399007	          0.00999999	          0.00999999	          0.00999999	          0.19870551	          0.01486219	          0.07409847	          0.00999999	          0.06652721	          0.00999999	          0.00999999	          0.13174399	          0.08493372	          0.00999999	
          1.30160963	         -4.43206285	         -1.91757947	          8.27546849	          1.71790577	          0.98071831	          0.00172805	         29.24828057	         -0.45632499	         -9.40356881	        -18.38644075	          3.50098974	          0.07174680	        -13.28376111	         -5.35875628	         -6.95213066	        -23.99359058	         -5.37116467	         41.41500794	        -10.68547602	          1.90527782	         -7.47544556	          0.02368181	          0.04838532	          0.00999999	          0.22395373	          0.29843156	          0.05467377	          0.04694059	          0.20558917	          0.04366135	          0.00999999	          0.27320337	          0.00999999	          0.00999999	          0.36045144	          0.09982033	          0.00999999	          0.00999999	          0.00999999	          0.24321141	          0.02749192	          0.06151010	          0.00999999	          0.05522508	          0.00999999	          0.00999999	          0.10936237	          0.07050456	          0.01859024	
          1.31388897	         -4.37685015	         -1.94762753	          8.08149326	          1.73658389	          0.98238120	          0.00267534	         28.81781926	         -0.25776660	         -9.34888448	        -19.78624503	          4.19401058	          0.13003766	        -11.51755420	         -5.89294735	         -7.62018699	        -28.74491289	         -7.00124200	         39.02820857	        -10.46771950	          2.24525954	         -7.46139880	          0.01965858	          0.04016527	          0.00999999	          0.23494924	          0.25842992	          0.05757104	          0.03896598	          0.17708033	          0.03624384	          0.00999999	          0.29560147	          0.00999999	          0.00999999	          0.30454247	          0.08286215	          0.02893207	          0.01000002	          0.00999999	          0.24143175	          0.02282141	          0.05106032	          0.00999999	          0.04584305	          0.00999999	          0.00999999	          0.09078310	          0.05852674	          0.06946839	
          1.32616831	         -4.31909060	         -1.92640663	          7.85387305	          1.75463934	          0.98465873	          0.00356578	         28.17614104	         -0.06578325	         -9.22169344	        -20.76340595	          4.92790539	          0.29439244	         -9.42344428	         -6.43602026	         -8.21702527	        -33.88288394	         -8.51398685	         35.15968490	        -10.32538826	          2.53592557	         -7.39233861	          0.01631884	          0.03334170	          0.00999999	          0.20089306	          0.21452604	          0.05836597	          0.03234616	          0.14699665	          0.03008648	          0.00999999	          0.31223065	          0.00999999	          0.00999999	          0.25280460	          0.12174978	          0.06477222	          0.07864279	          0.01209432	          0.20041558	          0.01894434	          0.04238583	          0.00999999	          0.03805490	          0.00999999	          0.00999999	          0.07536021	          0.04858379	          0.18417221	
          1.33844764	         -4.25882120	         -1.86719365	          7.58735391	          1.77201733	          0.98736403	          0.00438869	         27.37138482	          0.12067354	         -9.04190933	        -21.38290776	          5.64121070	          0.58795577	         -7.13137116	         -6.90337143	         -8.57059422	        -39.13306572	         -9.37389454	         30.21287350	        -10.26494938	          2.78526567	         -7.25924719	          0.01354648	          0.02767737	          0.00999999	          0.17094798	          0.18992520	          0.05085412	          0.02685096	          0.12202380	          0.02497517	          0.00999999	          0.30263875	          0.00999999	          0.00999999	          0.20985633	          0.13420033	          0.07054263	          0.11366741	          0.01384275	          0.16636753	          0.01572594	          0.04194985	          0.01000000	          0.03158986	          0.00999999	          0.00999999	          0.06255747	          0.04033003	          0.20475042	
          1.35072698	         -4.19583616	         -1.79286438	          7.28054293	          1.78874860	          0.99036992	          0.00511647	         26.45231871	          0.31111935	         -8.81965726	        -21.72372073	          6.29065572	          0.98763922	         -4.75643970	         -7.21945956	         -8.65826569	        -44.21624252	         -9.03666957	         25.82332782	        -10.28114722	          3.01670282	         -7.06097616	          0.01124510	          0.02297534	          0.00999999	          0.14514727	          0.15825953	          0.05352710	          0.02228932	          0.10129352	          0.02073221	          0.00999999	          0.27872539	          0.00999999	          0.00999999	          0.17420442	          0.12913171	          0.07068333	          0.12497404	          0.01149105	          0.13810382	          0.01305430	          0.05972119	          0.00999999	          0.02622323	          0.00999999	          0.00999999	          0.05192976	          0.03347847	          0.21856357	
